<svg xmlns="http://www.w3.org/2000/svg" xmlns:xlink="http://www.w3.org/1999/xlink" viewBox="0,0,256,256" width="40px" height="40px"><g fill="#646465" fill-rule="nonzero" stroke="none" stroke-width="1" stroke-linecap="butt" stroke-linejoin="miter" stroke-miterlimit="10" stroke-dasharray="" stroke-dashoffset="0" font-family="none" font-weight="none" font-size="none" text-anchor="none" style="mix-blend-mode: normal"><g transform="scale(8,8)"><path d="M27.115,7.889l-9.548,-5.513c-0.925,-0.534 -2.075,-0.533 -3,0l-9.548,5.513c-0.319,0.183 -0.576,0.436 -0.802,0.713c-0.076,0.069 -0.152,0.141 -0.205,0.235c-0.011,0.019 -0.01,0.039 -0.019,0.058c-0.297,0.472 -0.474,1.018 -0.474,1.592v11.025c0,1.068 0.575,2.064 1.5,2.599l9.548,5.512c0.463,0.268 0.981,0.401 1.501,0.401c0.519,0 1.037,-0.134 1.5,-0.4l9.548,-5.513c0.925,-0.534 1.5,-1.53 1.5,-2.599v-11.025c-0.001,-1.068 -0.576,-2.064 -1.501,-2.598zM6.019,22.379c-0.309,-0.178 -0.5,-0.51 -0.5,-0.866v-10.664l6.645,3.796c0.156,0.09 0.327,0.132 0.495,0.132c0.348,0 0.685,-0.181 0.869,-0.504c0.274,-0.479 0.107,-1.091 -0.372,-1.364l-6.45,-3.685l8.863,-5.117c0.153,-0.089 0.326,-0.133 0.499,-0.133c0.173,0 0.346,0.045 0.5,0.134l8.611,4.972l-9.716,6.072c-0.292,0.183 -0.47,0.503 -0.47,0.848v11.56zM26.115,22.379l-9.123,5.267v-11.091l9.623,-6.015v10.973c0,0.356 -0.191,0.688 -0.5,0.866z"></path></g></g></svg>