<?xml version="1.0" encoding="UTF-8"?>
<svg xmlns="http://www.w3.org/2000/svg" xmlns:xlink="http://www.w3.org/1999/xlink" width="380px" height="306px" viewBox="0 0 380 306" version="1.1">
<g id="surface1">
<path style=" stroke:none;fill-rule:nonzero;fill:rgb(94.901961%,94.901961%,94.901961%);fill-opacity:1;" d="M 306.128906 294.199219 C 307.472656 294.28125 308.214844 292.605469 307.199219 291.632812 L 307.09375 291.230469 C 307.109375 291.195312 307.125 291.164062 307.140625 291.132812 C 308.496094 287.882812 313.105469 287.902344 314.453125 291.160156 C 315.648438 294.046875 317.175781 296.941406 317.542969 299.996094 C 317.714844 301.34375 317.636719 302.722656 317.339844 304.042969 C 320.144531 297.902344 321.621094 291.199219 321.621094 284.453125 C 321.621094 282.761719 321.527344 281.070312 321.335938 279.375 C 321.183594 277.996094 320.964844 276.621094 320.691406 275.257812 C 319.1875 267.902344 315.941406 260.894531 311.253906 255.042969 C 309.003906 253.808594 307.125 251.875 305.988281 249.558594 C 305.582031 248.730469 305.261719 247.832031 305.109375 246.914062 C 305.367188 246.949219 306.078125 243.035156 305.882812 242.792969 C 306.242188 242.25 306.878906 241.984375 307.273438 241.449219 C 309.210938 238.8125 311.886719 239.273438 313.28125 242.859375 C 316.261719 244.367188 316.289062 246.871094 314.460938 249.273438 C 313.300781 250.808594 313.136719 252.878906 312.117188 254.519531 C 312.21875 254.652344 312.332031 254.785156 312.433594 254.921875 C 314.359375 257.398438 316.03125 260.0625 317.433594 262.855469 C 317.035156 259.75 317.621094 256 318.621094 253.589844 C 319.757812 250.832031 321.894531 248.515625 323.769531 246.136719 C 326.023438 243.285156 330.652344 244.53125 331.046875 248.152344 C 331.050781 248.183594 331.050781 248.21875 331.054688 248.257812 C 330.777344 248.414062 330.503906 248.582031 330.238281 248.757812 C 328.71875 249.769531 329.242188 252.132812 331.046875 252.410156 L 331.085938 252.417969 C 330.984375 253.429688 330.816406 254.425781 330.5625 255.40625 C 332.96875 264.746094 327.773438 268.152344 320.347656 268.304688 C 320.183594 268.386719 320.023438 268.472656 319.855469 268.550781 C 320.609375 270.675781 321.210938 272.855469 321.65625 275.0625 C 322.058594 277.011719 322.332031 278.988281 322.488281 280.964844 C 322.679688 283.464844 322.667969 285.976562 322.453125 288.472656 L 322.46875 288.382812 C 323 285.636719 324.492188 283.070312 326.648438 281.292969 C 329.863281 278.636719 334.414062 277.664062 337.882812 275.535156 C 339.558594 274.511719 341.695312 275.832031 341.40625 277.777344 L 341.390625 277.871094 C 340.875 278.082031 340.371094 278.320312 339.886719 278.597656 C 339.601562 278.753906 339.332031 278.921875 339.066406 279.097656 C 337.539062 280.113281 338.070312 282.476562 339.871094 282.753906 L 339.914062 282.761719 C 339.945312 282.765625 339.964844 282.769531 339.996094 282.773438 C 339.113281 284.886719 337.875 286.84375 336.324219 288.535156 C 334.824219 296.6875 328.351562 297.460938 321.433594 295.085938 L 321.429688 295.085938 C 320.671875 298.390625 319.566406 301.621094 318.144531 304.691406 L 306.421875 304.691406 C 306.382812 304.5625 306.339844 304.429688 306.304688 304.300781 C 307.386719 304.367188 308.480469 304.304688 309.546875 304.105469 C 308.679688 303.035156 307.808594 301.957031 306.9375 300.882812 C 306.917969 300.867188 306.902344 300.84375 306.882812 300.820312 C 306.441406 300.277344 305.996094 299.734375 305.554688 299.183594 L 305.554688 299.179688 C 305.527344 297.503906 305.730469 295.824219 306.128906 294.199219 Z M 306.128906 294.199219 "/>
<path style=" stroke:none;fill-rule:nonzero;fill:rgb(90.196078%,90.196078%,90.196078%);fill-opacity:1;" d="M 334.851562 141.800781 C 331.742188 161.519531 315.097656 188.585938 292.222656 214.679688 L 168.542969 214.679688 L 181.472656 132.707031 C 211.636719 132.835938 249.636719 123.527344 280.324219 119.148438 C 314.097656 114.339844 338.996094 115.5 334.851562 141.800781 Z M 334.851562 141.800781 "/>
<path style=" stroke:none;fill-rule:nonzero;fill:rgb(90.196078%,90.196078%,90.196078%);fill-opacity:1;" d="M 105.5 214.679688 L 40.335938 214.679688 C 36.726562 214.679688 33.800781 211.742188 33.800781 208.128906 L 33.800781 169.882812 C 35.25 168.398438 36.699219 166.9375 38.132812 165.515625 C 62.394531 141.480469 83.085938 127.53125 95.386719 151.128906 C 102.753906 165.261719 105.964844 188.320312 105.5 214.679688 Z M 105.5 214.679688 "/>
<path style=" stroke:none;fill-rule:nonzero;fill:rgb(90.196078%,90.196078%,90.196078%);fill-opacity:1;" d="M 371.484375 0 L 8.523438 0 C 3.824219 0 0 3.832031 0 8.539062 L 0 130.425781 C 0 134.941406 3.523438 138.660156 7.949219 138.945312 C 8.140625 138.964844 8.328125 138.972656 8.523438 138.972656 L 33.976562 138.972656 L 33.976562 137.664062 L 8.523438 137.664062 C 8.328125 137.664062 8.140625 137.660156 7.949219 137.644531 C 4.238281 137.347656 1.300781 134.222656 1.300781 130.425781 L 1.300781 8.539062 C 1.300781 4.546875 4.542969 1.308594 8.523438 1.308594 L 371.484375 1.308594 C 375.464844 1.308594 378.699219 4.546875 378.699219 8.539062 L 378.699219 130.425781 C 378.699219 134.421875 375.464844 137.664062 371.484375 137.664062 L 342.40625 137.664062 L 342.40625 138.972656 L 371.484375 138.972656 C 376.175781 138.972656 380 135.136719 380 130.425781 L 380 8.539062 C 380 3.832031 376.175781 0 371.484375 0 Z M 371.484375 0 "/>
<path style=" stroke:none;fill-rule:nonzero;fill:rgb(42.352941%,38.823529%,100%);fill-opacity:1;" d="M 53.144531 33.820312 C 53.144531 29.421875 49.511719 25.859375 45.035156 25.859375 C 40.558594 25.859375 36.925781 29.421875 36.925781 33.820312 C 36.925781 38.210938 40.558594 41.78125 45.035156 41.78125 C 49.511719 41.78125 53.144531 38.210938 53.144531 33.820312 Z M 53.144531 33.820312 "/>
<path style=" stroke:none;fill-rule:nonzero;fill:rgb(94.901961%,94.901961%,94.901961%);fill-opacity:1;" d="M 110.042969 31.097656 L 66.394531 31.097656 C 64.898438 31.097656 63.679688 29.875 63.679688 28.371094 C 63.679688 26.871094 64.898438 25.648438 66.394531 25.648438 L 110.042969 25.648438 C 111.542969 25.648438 112.761719 26.871094 112.761719 28.371094 C 112.761719 29.875 111.542969 31.097656 110.042969 31.097656 Z M 110.042969 31.097656 "/>
<path style=" stroke:none;fill-rule:nonzero;fill:rgb(94.901961%,94.901961%,94.901961%);fill-opacity:1;" d="M 144.109375 40.3125 L 66.394531 40.3125 C 64.898438 40.3125 63.679688 39.09375 63.679688 37.589844 C 63.679688 36.089844 64.898438 34.863281 66.394531 34.863281 L 144.109375 34.863281 C 145.609375 34.863281 146.828125 36.089844 146.828125 37.589844 C 146.828125 39.09375 145.609375 40.3125 144.109375 40.3125 Z M 144.109375 40.3125 "/>
<path style=" stroke:none;fill-rule:nonzero;fill:rgb(24.705882%,23.921569%,33.72549%);fill-opacity:1;" d="M 256.570312 70.484375 C 251.417969 70.484375 247.226562 66.285156 247.226562 61.117188 C 247.226562 55.949219 251.417969 51.746094 256.570312 51.746094 C 261.726562 51.746094 265.917969 55.949219 265.917969 61.117188 C 265.917969 66.285156 261.726562 70.484375 256.570312 70.484375 Z M 256.570312 53.050781 C 252.136719 53.050781 248.523438 56.664062 248.523438 61.117188 C 248.523438 65.5625 252.136719 69.183594 256.570312 69.183594 C 261.003906 69.183594 264.617188 65.5625 264.617188 61.117188 C 264.617188 56.664062 261.003906 53.050781 256.570312 53.050781 Z M 256.570312 53.050781 "/>
<path style=" stroke:none;fill-rule:nonzero;fill:rgb(24.705882%,23.921569%,33.72549%);fill-opacity:1;" d="M 288.867188 70.484375 C 283.714844 70.484375 279.523438 66.285156 279.523438 61.117188 C 279.523438 55.949219 283.714844 51.746094 288.867188 51.746094 C 294.019531 51.746094 298.214844 55.949219 298.214844 61.117188 C 298.214844 66.285156 294.019531 70.484375 288.867188 70.484375 Z M 288.867188 53.050781 C 284.433594 53.050781 280.820312 56.664062 280.820312 61.117188 C 280.820312 65.5625 284.433594 69.183594 288.867188 69.183594 C 293.304688 69.183594 296.910156 65.5625 296.910156 61.117188 C 296.910156 56.664062 293.304688 53.050781 288.867188 53.050781 Z M 288.867188 53.050781 "/>
<path style=" stroke:none;fill-rule:nonzero;fill:rgb(42.352941%,38.823529%,100%);fill-opacity:1;" d="M 293.839844 61.117188 C 293.839844 63.867188 291.613281 66.097656 288.867188 66.097656 C 286.125 66.097656 283.898438 63.867188 283.898438 61.117188 C 283.898438 58.367188 286.125 56.136719 288.867188 56.136719 C 291.613281 56.136719 293.839844 58.367188 293.839844 61.117188 Z M 293.839844 61.117188 "/>
<path style=" stroke:none;fill-rule:nonzero;fill:rgb(24.705882%,23.921569%,33.72549%);fill-opacity:1;" d="M 321.167969 70.484375 C 316.011719 70.484375 311.820312 66.285156 311.820312 61.117188 C 311.820312 55.949219 316.011719 51.746094 321.167969 51.746094 C 326.316406 51.746094 330.511719 55.949219 330.511719 61.117188 C 330.511719 66.285156 326.316406 70.484375 321.167969 70.484375 Z M 321.167969 53.050781 C 316.730469 53.050781 313.121094 56.664062 313.121094 61.117188 C 313.121094 65.5625 316.730469 69.183594 321.167969 69.183594 C 325.601562 69.183594 329.210938 65.5625 329.210938 61.117188 C 329.210938 56.664062 325.601562 53.050781 321.167969 53.050781 Z M 321.167969 53.050781 "/>
<path style=" stroke:none;fill-rule:nonzero;fill:rgb(94.901961%,94.901961%,94.901961%);fill-opacity:1;" d="M 297.640625 214.679688 L 130.234375 214.679688 C 125.652344 184.789062 110.546875 148.601562 101.4375 118.894531 C 91.421875 86.203125 88.675781 61.355469 115.234375 61.355469 C 143.621094 61.355469 191 86.261719 230.367188 118.894531 C 266.40625 148.753906 295.734375 185.078125 297.640625 214.679688 Z M 297.640625 214.679688 "/>
<path style=" stroke:none;fill-rule:nonzero;fill:rgb(24.705882%,23.921569%,33.72549%);fill-opacity:1;" d="M 335.691406 215.332031 L 40.335938 215.332031 C 36.375 215.332031 33.148438 212.101562 33.148438 208.128906 L 33.148438 95.960938 C 33.148438 91.988281 36.375 88.757812 40.335938 88.757812 L 335.691406 88.757812 C 339.652344 88.757812 342.875 91.988281 342.875 95.960938 L 342.875 208.128906 C 342.875 212.101562 339.652344 215.332031 335.691406 215.332031 Z M 40.335938 90.058594 C 37.085938 90.058594 34.449219 92.707031 34.449219 95.960938 L 34.449219 208.128906 C 34.449219 211.382812 37.085938 214.027344 40.335938 214.027344 L 335.691406 214.027344 C 338.933594 214.027344 341.574219 211.382812 341.574219 208.128906 L 341.574219 95.960938 C 341.574219 92.707031 338.933594 90.058594 335.691406 90.058594 Z M 40.335938 90.058594 "/>
<path style=" stroke:none;fill-rule:nonzero;fill:rgb(100%,71.372549%,71.372549%);fill-opacity:1;" d="M 266.886719 299.6875 L 271.960938 299.6875 L 274.367188 280.074219 L 266.882812 280.074219 Z M 266.886719 299.6875 "/>
<path style=" stroke:none;fill-rule:nonzero;fill:rgb(100%,71.372549%,71.372549%);fill-opacity:1;" d="M 248.554688 299.6875 L 253.628906 299.6875 L 256.035156 280.074219 L 248.550781 280.074219 Z M 248.554688 299.6875 "/>
<path style=" stroke:none;fill-rule:nonzero;fill:rgb(18.431373%,18.039216%,25.490196%);fill-opacity:1;" d="M 237.832031 186.238281 L 244.707031 241.058594 L 248.449219 289.078125 L 257.09375 289.078125 L 261.539062 240.308594 L 260.792969 204.667969 L 266.03125 238.808594 L 265.011719 289.078125 L 274.628906 289.078125 L 282.867188 239.558594 L 282.175781 182.84375 Z M 237.832031 186.238281 "/>
<path style=" stroke:none;fill-rule:nonzero;fill:rgb(42.352941%,38.823529%,100%);fill-opacity:1;" d="M 266.777344 99.25 L 251.933594 99.25 L 247.324219 105.535156 L 235.351562 111.117188 L 242.460938 154.734375 L 237.597656 187.183594 C 237.597656 187.183594 271.644531 197.652344 282.867188 184.742188 C 284.097656 183.113281 284.234375 181.28125 282.394531 179.082031 L 280.246094 153.335938 L 280.621094 108.675781 L 269.019531 104.488281 Z M 266.777344 99.25 "/>
<path style=" stroke:none;fill-rule:nonzero;fill:rgb(100%,71.372549%,71.372549%);fill-opacity:1;" d="M 226.910156 183.90625 L 230.011719 171.378906 L 237.386719 172.15625 L 233.648438 185.28125 C 233.824219 185.65625 233.953125 186.0625 234.019531 186.5 C 234.371094 188.859375 232.753906 191.058594 230.398438 191.414062 C 228.046875 191.765625 225.855469 190.144531 225.5 187.78125 C 225.277344 186.28125 225.855469 184.84375 226.910156 183.90625 Z M 226.910156 183.90625 "/>
<path style=" stroke:none;fill-rule:nonzero;fill:rgb(42.352941%,38.823529%,100%);fill-opacity:1;" d="M 239.308594 110.089844 L 233.820312 111.5 C 231.910156 111.664062 228.695312 124.246094 230.261719 126.96875 C 230.261719 126.96875 227.84375 149.046875 229.164062 151.125 C 230.488281 153.207031 227.601562 178.410156 227.601562 178.410156 L 237.59375 178.460938 L 245.363281 130.027344 L 238.414062 115.601562 C 238.335938 113.164062 241.726562 109.882812 239.308594 110.089844 Z M 239.308594 110.089844 "/>
<path style=" stroke:none;fill-rule:nonzero;fill:rgb(100%,71.372549%,71.372549%);fill-opacity:1;" d="M 284.132812 68.667969 L 287.414062 80.46875 L 294.398438 79.527344 L 290.484375 67.175781 C 290.644531 66.8125 290.753906 66.421875 290.808594 66.007812 C 291.078125 63.761719 289.480469 61.71875 287.234375 61.445312 C 284.992188 61.175781 282.957031 62.777344 282.683594 65.027344 C 282.511719 66.457031 283.105469 67.804688 284.132812 68.667969 Z M 284.132812 68.667969 "/>
<path style=" stroke:none;fill-rule:nonzero;fill:rgb(42.352941%,38.823529%,100%);fill-opacity:1;" d="M 269.542969 117.175781 C 270.285156 120.003906 273.042969 121.816406 275.925781 121.351562 C 280.445312 120.621094 286.746094 119.042969 289.6875 115.695312 L 298.632812 109.503906 L 301.363281 107.097656 C 302.851562 105.777344 303.398438 103.683594 302.734375 101.800781 L 292.03125 71.496094 L 283.746094 74.007812 L 291.050781 95.722656 L 291.472656 95.933594 C 287.609375 96.871094 281.503906 102.25 279.757812 105.070312 C 276.070312 104.640625 273.644531 107.394531 271.617188 111.175781 C 269.777344 112.566406 268.960938 114.9375 269.542969 117.175781 Z M 269.542969 117.175781 "/>
<path style=" stroke:none;fill-rule:nonzero;fill:rgb(100%,71.372549%,71.372549%);fill-opacity:1;" d="M 271.996094 84.746094 C 271.996094 91.792969 266.296875 97.511719 259.269531 97.511719 C 252.234375 97.511719 246.535156 91.792969 246.535156 84.746094 C 246.535156 77.699219 252.234375 71.980469 259.269531 71.980469 C 266.296875 71.980469 271.996094 77.699219 271.996094 84.746094 Z M 271.996094 84.746094 "/>
<path style=" stroke:none;fill-rule:nonzero;fill:rgb(18.431373%,18.039216%,25.490196%);fill-opacity:1;" d="M 269.019531 76.746094 C 268.636719 78.601562 271.125 80.953125 270.742188 82.800781 C 270.488281 84.054688 270.1875 85.367188 269.234375 86.308594 C 268.351562 87.175781 267.03125 87.578125 266.0625 88.363281 C 264.753906 89.429688 264.210938 91.191406 264.726562 92.703125 C 265.074219 93.703125 265.828125 94.753906 265.761719 95.71875 C 265.75 95.960938 265.683594 96.199219 265.539062 96.429688 C 264.953125 97.414062 263.46875 97.53125 262.238281 97.53125 L 256.046875 97.53125 C 251.535156 97.527344 247.585938 94.542969 246.261719 90.207031 C 246.058594 89.566406 245.847656 88.957031 245.628906 88.429688 C 244.738281 86.304688 244.085938 84.089844 243.699219 81.84375 C 243.324219 79.75 245.335938 78.71875 246.203125 76.746094 C 247.144531 74.574219 247.066406 71.734375 249.378906 70.691406 C 251.6875 69.640625 254.132812 71.164062 256.679688 70.742188 L 256.773438 70.722656 C 259.816406 70.175781 263.085938 67.789062 266.0625 68.511719 C 267.773438 68.929688 269.414062 69.8125 270.570312 71.003906 C 269.75 71.433594 268.871094 71.734375 267.964844 71.898438 C 269.183594 71.875 270.417969 72.042969 271.59375 72.378906 C 271.902344 72.949219 272.113281 73.566406 272.183594 74.214844 C 272.296875 75.179688 269.503906 75.695312 269.066406 76.609375 C 269.050781 76.65625 269.027344 76.699219 269.019531 76.746094 Z M 269.019531 76.746094 "/>
<path style=" stroke:none;fill-rule:nonzero;fill:rgb(24.705882%,23.921569%,33.72549%);fill-opacity:1;" d="M 319.292969 65.433594 C 319.113281 65.433594 318.941406 65.363281 318.808594 65.222656 C 318.570312 64.957031 318.585938 64.539062 318.855469 64.300781 L 322.464844 61.019531 L 319.195312 57.402344 C 318.957031 57.132812 318.976562 56.722656 319.246094 56.480469 C 319.507812 56.238281 319.917969 56.261719 320.160156 56.523438 L 323.867188 60.628906 C 324.109375 60.894531 324.089844 61.308594 323.824219 61.550781 L 319.726562 65.265625 C 319.605469 65.378906 319.449219 65.433594 319.292969 65.433594 Z M 319.292969 65.433594 "/>
<path style=" stroke:none;fill-rule:nonzero;fill:rgb(24.705882%,23.921569%,33.72549%);fill-opacity:1;" d="M 258.515625 65.433594 C 258.363281 65.433594 258.203125 65.378906 258.082031 65.265625 L 253.984375 61.550781 C 253.714844 61.308594 253.703125 60.894531 253.941406 60.628906 L 257.648438 56.523438 C 257.886719 56.261719 258.300781 56.238281 258.5625 56.480469 C 258.832031 56.722656 258.851562 57.132812 258.613281 57.402344 L 255.34375 61.019531 L 258.953125 64.300781 C 259.21875 64.539062 259.238281 64.957031 258.996094 65.222656 C 258.867188 65.363281 258.691406 65.433594 258.515625 65.433594 Z M 258.515625 65.433594 "/>
<path style=" stroke:none;fill-rule:nonzero;fill:rgb(18.431373%,18.039216%,25.490196%);fill-opacity:1;" d="M 284.871094 300.398438 C 284.820312 301.433594 283.617188 304.007812 282.625 304.304688 C 279.652344 305.195312 265.488281 304.804688 264.945312 302.8125 C 263.617188 304.042969 264.917969 292.871094 266.570312 294.304688 C 269.957031 297.226562 272.316406 295.882812 272.785156 293.515625 L 273.347656 292.082031 L 273.457031 292.242188 C 273.800781 292.742188 272.949219 291.238281 273.550781 291.199219 C 273.621094 291.199219 275.199219 294.382812 275.707031 294.746094 L 275.75 294.8125 C 277.109375 297.011719 279.621094 298.234375 282.1875 297.941406 C 282.980469 297.851562 283.804688 298.117188 284.316406 298.734375 C 284.6875 299.1875 284.898438 299.773438 284.871094 300.398438 Z M 284.871094 300.398438 "/>
<path style=" stroke:none;fill-rule:nonzero;fill:rgb(18.431373%,18.039216%,25.490196%);fill-opacity:1;" d="M 266.648438 300.398438 C 266.601562 301.433594 265.398438 304.007812 264.402344 304.304688 C 261.433594 305.195312 247.269531 304.804688 246.726562 302.8125 C 245.398438 304.042969 246.695312 292.871094 248.355469 294.304688 C 251.738281 297.226562 254.097656 295.882812 254.5625 293.515625 L 255.128906 292.082031 L 255.238281 292.242188 C 255.578125 292.742188 254.730469 291.238281 255.335938 291.199219 C 255.40625 291.199219 256.980469 294.382812 257.488281 294.746094 L 257.53125 294.8125 C 258.894531 297.011719 261.398438 298.234375 263.964844 297.941406 C 264.761719 297.851562 265.589844 298.117188 266.097656 298.734375 C 266.46875 299.1875 266.679688 299.773438 266.648438 300.398438 Z M 266.648438 300.398438 "/>
<path style=" stroke:none;fill-rule:nonzero;fill:rgb(80%,80%,80%);fill-opacity:1;" d="M 180.984375 304.960938 C 180.984375 305.394531 181.332031 305.738281 181.761719 305.738281 L 346.574219 305.738281 C 347.003906 305.738281 347.347656 305.394531 347.347656 304.960938 C 347.347656 304.53125 347.003906 304.183594 346.574219 304.183594 L 181.761719 304.183594 C 181.332031 304.183594 180.984375 304.53125 180.984375 304.960938 Z M 180.984375 304.960938 "/>
</g>
</svg>
